# xmcd CD database file
#
# Track frame offsets:
#	150
#	15774
#	31527
#	46412
#	73565
#	90818
#	97871
#	120606
#	135333
#
# Disc length: 1984 seconds
#
# Revision: 1
# Processed by: cddbd v1.5.2PL0 Copyright (c) Steve Scherf et al.
# Submitted via: CDex 1.51
#
DISCID=5307be09
DTITLE=last three lives - last three lives
DYEAR=2003
DGENRE=New Age
TTITLE0=Memory
TTITLE1=Kalihari
TTITLE2=Reality
TTITLE3=Adamski's Hubcap
TTITLE4=Rest Assured
TTITLE5=Undone
TTITLE6=The True Church
TTITLE7=Outlined
TTITLE8=Sky Over Earth
EXTD=YEAR: 2003
EXTT0=
EXTT1=
EXTT2=
EXTT3=
EXTT4=
EXTT5=
EXTT6=
EXTT7=
EXTT8=
PLAYORDER=
